<svg xmlns="http://www.w3.org/2000/svg" xmlns:xlink="http://www.w3.org/1999/xlink" width="2000" zoomAndPan="magnify" viewBox="0 0 1500 374.999991" height="500" preserveAspectRatio="xMidYMid meet" version="1.2"><defs/><g id="37fdd4ef0d"><g style="fill:#0a2540;fill-opacity:1;"><g transform="translate(4.779711, 234.374985)"><path style="stroke:none" d="M 61.085938 -95.25 C 68.199219 -95.25 74.355469 -93.976562 79.5625 -91.4375 C 84.769531 -88.898438 88.792969 -85.363281 91.628906 -80.832031 C 94.464844 -76.304688 95.882812 -71.078125 95.882812 -65.148438 C 95.882812 -59.222656 94.464844 -53.996094 91.628906 -49.464844 C 88.792969 -44.9375 84.769531 -41.402344 79.5625 -38.859375 C 74.355469 -36.320312 68.199219 -35.050781 61.085938 -35.050781 L 18.289062 -35.050781 L 18.289062 -49.527344 L 60.449219 -49.527344 C 66.207031 -49.527344 70.714844 -50.925781 73.976562 -53.71875 C 77.234375 -56.515625 78.867188 -60.324219 78.867188 -65.148438 C 78.867188 -69.976562 77.234375 -73.785156 73.976562 -76.578125 C 70.714844 -79.375 66.207031 -80.769531 60.449219 -80.769531 L 19.9375 -80.769531 L 27.429688 -89.152344 L 27.429688 0 L 10.667969 0 L 10.667969 -95.25 Z M 61.085938 -95.25 "/></g></g><g style="fill:#0a2540;fill-opacity:1;"><g transform="translate(103.709713, 234.374985)"><path style="stroke:none" d="M 5.332031 -71.878906 L 21.84375 -71.878906 L 26.160156 -45.71875 L 26.160156 0 L 9.652344 0 L 9.652344 -48.894531 Z M 62.609375 -72.386719 L 62.609375 -57.910156 C 60.746094 -58.417969 58.714844 -58.800781 56.515625 -59.054688 C 54.3125 -59.308594 52.238281 -59.433594 50.289062 -59.433594 C 45.632812 -59.433594 41.484375 -58.417969 37.84375 -56.386719 C 34.203125 -54.355469 31.347656 -51.328125 29.273438 -47.304688 C 27.199219 -43.285156 26.160156 -38.351562 26.160156 -32.511719 L 22.351562 -37.210938 C 22.691406 -42.289062 23.558594 -47.050781 24.953125 -51.496094 C 26.351562 -55.941406 28.300781 -59.816406 30.796875 -63.117188 C 33.292969 -66.417969 36.363281 -69.003906 40.003906 -70.863281 C 43.644531 -72.726562 47.878906 -73.660156 52.703125 -73.660156 C 54.398438 -73.660156 56.132812 -73.550781 57.910156 -73.339844 C 59.6875 -73.128906 61.253906 -72.8125 62.609375 -72.386719 Z M 62.609375 -72.386719 "/></g></g><g style="fill:#0a2540;fill-opacity:1;"><g transform="translate(165.175811, 234.374985)"><path style="stroke:none" d="M 48.003906 1.777344 C 39.625 1.777344 32.171875 0.191406 25.652344 -2.984375 C 19.132812 -6.160156 14.011719 -10.582031 10.285156 -16.253906 C 6.5625 -21.929688 4.699219 -28.53125 4.699219 -36.066406 C 4.699219 -43.519531 6.457031 -50.058594 9.96875 -55.6875 C 13.484375 -61.320312 18.351562 -65.722656 24.574219 -68.894531 C 30.796875 -72.070312 37.929688 -73.660156 45.972656 -73.660156 C 54.015625 -73.660156 60.980469 -71.859375 66.863281 -68.261719 C 72.75 -64.664062 77.300781 -59.605469 80.515625 -53.085938 C 83.734375 -46.566406 85.34375 -38.902344 85.34375 -30.097656 L 17.652344 -30.097656 L 17.652344 -42.671875 L 77.085938 -42.671875 L 68.832031 -37.972656 C 68.578125 -42.714844 67.457031 -46.777344 65.46875 -50.164062 C 63.476562 -53.550781 60.8125 -56.152344 57.464844 -57.972656 C 54.121094 -59.792969 50.164062 -60.703125 45.59375 -60.703125 C 40.765625 -60.703125 36.554688 -59.730469 32.957031 -57.785156 C 29.359375 -55.835938 26.542969 -53.105469 24.511719 -49.59375 C 22.480469 -46.078125 21.460938 -41.910156 21.460938 -37.082031 C 21.460938 -31.75 22.667969 -27.136719 25.082031 -23.242188 C 27.496094 -19.347656 30.925781 -16.363281 35.367188 -14.289062 C 39.8125 -12.214844 45.085938 -11.175781 51.179688 -11.175781 C 56.683594 -11.175781 62.3125 -12.042969 68.070312 -13.777344 C 73.828125 -15.515625 78.90625 -17.949219 83.308594 -21.082031 L 83.308594 -9.144531 C 78.90625 -5.757812 73.550781 -3.089844 67.246094 -1.144531 C 60.9375 0.804688 54.523438 1.777344 48.003906 1.777344 Z M 48.003906 1.777344 "/></g></g><g style="fill:#0a2540;fill-opacity:1;"><g transform="translate(255.343095, 234.374985)"><path style="stroke:none" d="M 76.070312 0 L 73.277344 -27.304688 L 76.960938 -35.8125 L 73.40625 -45.59375 L 78.738281 -97.789062 L 95.757812 -97.789062 L 89.277344 -36.957031 L 92.960938 0 Z M 80.898438 -35.941406 C 79.289062 -28.40625 76.621094 -21.800781 72.898438 -16.128906 C 69.171875 -10.457031 64.578125 -6.054688 59.117188 -2.921875 C 53.65625 0.210938 47.582031 1.777344 40.894531 1.777344 C 33.867188 1.777344 27.644531 0.191406 22.222656 -2.984375 C 16.804688 -6.160156 12.574219 -10.582031 9.523438 -16.253906 C 6.476562 -21.929688 4.953125 -28.488281 4.953125 -35.941406 C 4.953125 -43.476562 6.476562 -50.058594 9.523438 -55.6875 C 12.574219 -61.320312 16.804688 -65.722656 22.222656 -68.894531 C 27.644531 -72.070312 33.867188 -73.660156 40.894531 -73.660156 C 47.582031 -73.660156 53.65625 -72.09375 59.117188 -68.960938 C 64.578125 -65.828125 69.191406 -61.445312 72.960938 -55.816406 C 76.726562 -50.183594 79.375 -43.558594 80.898438 -35.941406 Z M 21.714844 -35.941406 C 21.714844 -31.113281 22.710938 -26.859375 24.699219 -23.175781 C 26.691406 -19.492188 29.421875 -16.617188 32.890625 -14.542969 C 36.363281 -12.46875 40.34375 -11.429688 44.832031 -11.429688 C 49.402344 -11.429688 53.636719 -12.46875 57.53125 -14.542969 C 61.425781 -16.617188 64.875 -19.492188 67.878906 -23.175781 C 70.886719 -26.859375 73.277344 -31.113281 75.054688 -35.941406 C 73.277344 -40.765625 70.886719 -45.019531 67.878906 -48.703125 C 64.875 -52.386719 61.425781 -55.265625 57.53125 -57.339844 C 53.636719 -59.414062 49.402344 -60.449219 44.832031 -60.449219 C 40.34375 -60.449219 36.363281 -59.414062 32.890625 -57.339844 C 29.421875 -55.265625 26.691406 -52.386719 24.699219 -48.703125 C 22.710938 -45.019531 21.714844 -40.765625 21.714844 -35.941406 Z M 21.714844 -35.941406 "/></g></g><g style="fill:#0a2540;fill-opacity:1;"><g transform="translate(355.41604, 234.374985)"><path style="stroke:none" d="M 8.761719 -72.386719 L 17.019531 -70.863281 L 25.273438 -72.386719 L 25.273438 0 L 8.761719 0 Z M 17.019531 -81.40625 C 13.886719 -81.40625 11.304688 -82.273438 9.269531 -84.007812 C 7.238281 -85.746094 6.222656 -88.007812 6.222656 -90.804688 C 6.222656 -93.597656 7.238281 -95.863281 9.269531 -97.597656 C 11.304688 -99.332031 13.886719 -100.199219 17.019531 -100.199219 C 20.234375 -100.199219 22.839844 -99.332031 24.828125 -97.597656 C 26.816406 -95.863281 27.8125 -93.597656 27.8125 -90.804688 C 27.8125 -88.007812 26.816406 -85.746094 24.828125 -84.007812 C 22.839844 -82.273438 20.234375 -81.40625 17.019531 -81.40625 Z M 17.019531 -81.40625 "/></g></g><g style="fill:#0a2540;fill-opacity:1;"><g transform="translate(389.451042, 234.374985)"><path style="stroke:none" d="M 88.136719 -28.320312 C 87.289062 -22.394531 84.960938 -17.164062 81.152344 -12.636719 C 77.339844 -8.105469 72.472656 -4.570312 66.546875 -2.03125 C 60.621094 0.507812 54.015625 1.777344 46.734375 1.777344 C 38.4375 1.777344 31.136719 0.191406 24.828125 -2.984375 C 18.519531 -6.160156 13.589844 -10.582031 10.03125 -16.253906 C 6.476562 -21.929688 4.699219 -28.488281 4.699219 -35.941406 C 4.699219 -43.390625 6.476562 -49.953125 10.03125 -55.625 C 13.589844 -61.296875 18.519531 -65.722656 24.828125 -68.894531 C 31.136719 -72.070312 38.4375 -73.660156 46.734375 -73.660156 C 54.015625 -73.660156 60.621094 -72.386719 66.546875 -69.847656 C 72.472656 -67.308594 77.339844 -63.773438 81.152344 -59.246094 C 84.960938 -54.714844 87.289062 -49.445312 88.136719 -43.433594 L 71.5 -43.433594 C 70.3125 -48.851562 67.476562 -53.085938 62.992188 -56.132812 C 58.503906 -59.179688 53.085938 -60.703125 46.734375 -60.703125 C 41.65625 -60.703125 37.210938 -59.710938 33.398438 -57.71875 C 29.589844 -55.730469 26.648438 -52.894531 24.574219 -49.210938 C 22.5 -45.527344 21.460938 -41.105469 21.460938 -35.941406 C 21.460938 -30.859375 22.5 -26.457031 24.574219 -22.734375 C 26.648438 -19.007812 29.589844 -16.148438 33.398438 -14.160156 C 37.210938 -12.171875 41.65625 -11.175781 46.734375 -11.175781 C 53.167969 -11.175781 58.628906 -12.742188 63.117188 -15.875 C 67.605469 -19.007812 70.398438 -23.15625 71.5 -28.320312 Z M 88.136719 -28.320312 "/></g></g><g style="fill:#0a2540;fill-opacity:1;"><g transform="translate(481.396257, 234.374985)"><path style="stroke:none" d="M 75.816406 0 L 73.023438 -26.667969 L 76.324219 -35.941406 L 73.023438 -45.085938 L 75.816406 -71.878906 L 92.835938 -71.878906 L 89.023438 -35.941406 L 92.835938 0 Z M 80.898438 -35.941406 C 79.289062 -28.40625 76.621094 -21.800781 72.898438 -16.128906 C 69.171875 -10.457031 64.578125 -6.054688 59.117188 -2.921875 C 53.65625 0.210938 47.582031 1.777344 40.894531 1.777344 C 33.867188 1.777344 27.644531 0.191406 22.222656 -2.984375 C 16.804688 -6.160156 12.574219 -10.582031 9.523438 -16.253906 C 6.476562 -21.929688 4.953125 -28.488281 4.953125 -35.941406 C 4.953125 -43.476562 6.476562 -50.058594 9.523438 -55.6875 C 12.574219 -61.320312 16.804688 -65.722656 22.222656 -68.894531 C 27.644531 -72.070312 33.867188 -73.660156 40.894531 -73.660156 C 47.582031 -73.660156 53.65625 -72.09375 59.117188 -68.960938 C 64.578125 -65.828125 69.191406 -61.445312 72.960938 -55.816406 C 76.726562 -50.183594 79.375 -43.558594 80.898438 -35.941406 Z M 21.714844 -35.941406 C 21.714844 -31.113281 22.710938 -26.859375 24.699219 -23.175781 C 26.691406 -19.492188 29.421875 -16.617188 32.890625 -14.542969 C 36.363281 -12.46875 40.34375 -11.429688 44.832031 -11.429688 C 49.402344 -11.429688 53.636719 -12.46875 57.53125 -14.542969 C 61.425781 -16.617188 64.875 -19.492188 67.878906 -23.175781 C 70.886719 -26.859375 73.277344 -31.113281 75.054688 -35.941406 C 73.277344 -40.765625 70.886719 -45.019531 67.878906 -48.703125 C 64.875 -52.386719 61.425781 -55.265625 57.53125 -57.339844 C 53.636719 -59.414062 49.402344 -60.449219 44.832031 -60.449219 C 40.34375 -60.449219 36.363281 -59.414062 32.890625 -57.339844 C 29.421875 -55.265625 26.691406 -52.386719 24.699219 -48.703125 C 22.710938 -45.019531 21.714844 -40.765625 21.714844 -35.941406 Z M 21.714844 -35.941406 "/></g></g><g style="fill:#0a2540;fill-opacity:1;"><g transform="translate(581.342219, 234.374985)"><path style="stroke:none" d="M 0.636719 -59.179688 L 0.636719 -66.671875 L 16 -70.609375 L 22.859375 -90.675781 L 32.511719 -90.675781 L 32.511719 -71.878906 L 65.910156 -71.878906 L 65.910156 -59.179688 L 32.511719 -59.179688 L 32.511719 -28.066406 C 32.511719 -22.054688 33.800781 -17.84375 36.386719 -15.429688 C 38.96875 -13.015625 43.179688 -11.8125 49.019531 -11.8125 C 52.746094 -11.8125 56.046875 -12.214844 58.925781 -13.015625 C 61.804688 -13.820312 64.558594 -14.984375 67.183594 -16.507812 L 67.183594 -2.921875 C 64.980469 -1.820312 61.867188 -0.761719 57.847656 0.253906 C 53.824219 1.269531 49.699219 1.777344 45.464844 1.777344 C 38.4375 1.777344 32.765625 0.613281 28.449219 -1.714844 C 24.128906 -4.042969 20.976562 -7.261719 18.984375 -11.367188 C 16.996094 -15.472656 16 -20.191406 16 -25.527344 L 16 -59.179688 Z M 0.636719 -59.179688 "/></g></g><g style="fill:#0a2540;fill-opacity:1;"><g transform="translate(649.285101, 234.374985)"><path style="stroke:none" d="M 48.003906 1.777344 C 39.625 1.777344 32.171875 0.191406 25.652344 -2.984375 C 19.132812 -6.160156 14.011719 -10.582031 10.285156 -16.253906 C 6.5625 -21.929688 4.699219 -28.53125 4.699219 -36.066406 C 4.699219 -43.519531 6.457031 -50.058594 9.96875 -55.6875 C 13.484375 -61.320312 18.351562 -65.722656 24.574219 -68.894531 C 30.796875 -72.070312 37.929688 -73.660156 45.972656 -73.660156 C 54.015625 -73.660156 60.980469 -71.859375 66.863281 -68.261719 C 72.75 -64.664062 77.300781 -59.605469 80.515625 -53.085938 C 83.734375 -46.566406 85.34375 -38.902344 85.34375 -30.097656 L 17.652344 -30.097656 L 17.652344 -42.671875 L 77.085938 -42.671875 L 68.832031 -37.972656 C 68.578125 -42.714844 67.457031 -46.777344 65.46875 -50.164062 C 63.476562 -53.550781 60.8125 -56.152344 57.464844 -57.972656 C 54.121094 -59.792969 50.164062 -60.703125 45.59375 -60.703125 C 40.765625 -60.703125 36.554688 -59.730469 32.957031 -57.785156 C 29.359375 -55.835938 26.542969 -53.105469 24.511719 -49.59375 C 22.480469 -46.078125 21.460938 -41.910156 21.460938 -37.082031 C 21.460938 -31.75 22.667969 -27.136719 25.082031 -23.242188 C 27.496094 -19.347656 30.925781 -16.363281 35.367188 -14.289062 C 39.8125 -12.214844 45.085938 -11.175781 51.179688 -11.175781 C 56.683594 -11.175781 62.3125 -12.042969 68.070312 -13.777344 C 73.828125 -15.515625 78.90625 -17.949219 83.308594 -21.082031 L 83.308594 -9.144531 C 78.90625 -5.757812 73.550781 -3.089844 67.246094 -1.144531 C 60.9375 0.804688 54.523438 1.777344 48.003906 1.777344 Z M 48.003906 1.777344 "/></g></g><g style="fill:#0a2540;fill-opacity:1;"><g transform="translate(739.452407, 234.374985)"><path style="stroke:none" d=""/></g></g><g style="fill:#0a2540;fill-opacity:1;"><g transform="translate(773.106412, 234.374985)"><path style="stroke:none" d="M 10.667969 -95.25 L 27.429688 -95.25 L 27.429688 0 L 10.667969 0 Z M 88.136719 -95.25 L 104.898438 -95.25 L 104.898438 0 L 88.136719 0 Z M 19.683594 -55.371094 L 96.136719 -55.371094 L 96.136719 -40.640625 L 19.683594 -40.640625 Z M 19.683594 -55.371094 "/></g></g><g style="fill:#0a2540;fill-opacity:1;"><g transform="translate(888.672872, 234.374985)"><path style="stroke:none" d="M 8.761719 -72.386719 L 17.019531 -70.863281 L 25.273438 -72.386719 L 25.273438 0 L 8.761719 0 Z M 17.019531 -81.40625 C 13.886719 -81.40625 11.304688 -82.273438 9.269531 -84.007812 C 7.238281 -85.746094 6.222656 -88.007812 6.222656 -90.804688 C 6.222656 -93.597656 7.238281 -95.863281 9.269531 -97.597656 C 11.304688 -99.332031 13.886719 -100.199219 17.019531 -100.199219 C 20.234375 -100.199219 22.839844 -99.332031 24.828125 -97.597656 C 26.816406 -95.863281 27.8125 -93.597656 27.8125 -90.804688 C 27.8125 -88.007812 26.816406 -85.746094 24.828125 -84.007812 C 22.839844 -82.273438 20.234375 -81.40625 17.019531 -81.40625 Z M 17.019531 -81.40625 "/></g></g><g style="fill:#0a2540;fill-opacity:1;"><g transform="translate(922.707873, 234.374985)"><path style="stroke:none" d="M 74.039062 -17.652344 L 74.039062 -30.351562 L 74.675781 -32.636719 L 74.675781 -46.480469 L 74.039062 -49.019531 L 74.039062 -71.878906 L 90.550781 -71.878906 L 90.550781 -19.175781 C 90.550781 -9.949219 88.601562 -2.222656 84.707031 4 C 80.8125 10.222656 75.480469 14.902344 68.707031 18.035156 C 61.933594 21.167969 54.144531 22.734375 45.339844 22.734375 C 38.902344 22.734375 32.976562 21.886719 27.558594 20.191406 C 22.140625 18.5 16.890625 15.917969 11.8125 12.445312 L 11.8125 -1.269531 C 16.976562 2.792969 22.308594 5.652344 27.8125 7.300781 C 33.316406 8.953125 38.820312 9.777344 44.320312 9.777344 C 53.972656 9.777344 61.339844 7.40625 66.417969 2.667969 C 71.5 -2.074219 74.039062 -8.847656 74.039062 -17.652344 Z M 39.496094 -5.585938 C 32.890625 -5.585938 26.964844 -7.007812 21.714844 -9.84375 C 16.46875 -12.679688 12.320312 -16.636719 9.269531 -21.714844 C 6.222656 -26.796875 4.699219 -32.765625 4.699219 -39.625 C 4.699219 -46.480469 6.222656 -52.449219 9.269531 -57.53125 C 12.320312 -62.609375 16.46875 -66.566406 21.714844 -69.402344 C 26.964844 -72.242188 32.890625 -73.660156 39.496094 -73.660156 C 44.40625 -73.660156 48.957031 -72.898438 53.148438 -71.371094 C 57.339844 -69.847656 61.105469 -67.835938 64.453125 -65.339844 C 67.796875 -62.84375 70.632812 -60.089844 72.960938 -57.085938 C 75.289062 -54.078125 77.085938 -51.03125 78.359375 -47.941406 C 79.628906 -44.851562 80.261719 -42.035156 80.261719 -39.496094 C 80.261719 -36.195312 79.289062 -32.574219 77.339844 -28.636719 C 75.394531 -24.699219 72.621094 -20.996094 69.023438 -17.527344 C 65.425781 -14.054688 61.128906 -11.195312 56.132812 -8.953125 C 51.136719 -6.710938 45.59375 -5.585938 39.496094 -5.585938 Z M 44.574219 -17.78125 C 50.585938 -17.78125 56.113281 -19.515625 61.148438 -22.988281 C 66.1875 -26.457031 70.695312 -32.003906 74.675781 -39.625 C 70.695312 -47.414062 66.1875 -53.019531 61.148438 -56.449219 C 56.113281 -59.878906 50.585938 -61.59375 44.574219 -61.59375 C 39.664062 -61.59375 35.476562 -60.664062 32.003906 -58.800781 C 28.53125 -56.9375 25.886719 -54.355469 24.066406 -51.054688 C 22.246094 -47.75 21.335938 -43.941406 21.335938 -39.625 C 21.335938 -35.390625 22.246094 -31.621094 24.066406 -28.320312 C 25.886719 -25.019531 28.53125 -22.4375 32.003906 -20.574219 C 35.476562 -18.710938 39.664062 -17.78125 44.574219 -17.78125 Z M 44.574219 -17.78125 "/></g></g><g style="fill:#0a2540;fill-opacity:1;"><g transform="translate(1021.637829, 234.374985)"><path style="stroke:none" d="M 8.761719 -97.789062 L 25.273438 -97.789062 L 25.273438 0 L 8.761719 0 Z M 53.847656 -73.660156 C 60.621094 -73.660156 66.378906 -72.304688 71.117188 -69.59375 C 75.859375 -66.886719 79.480469 -63.011719 81.976562 -57.972656 C 84.472656 -52.9375 85.722656 -46.863281 85.722656 -39.75 L 85.722656 0 L 69.214844 0 L 69.214844 -37.082031 C 69.214844 -44.617188 67.457031 -50.3125 63.941406 -54.164062 C 60.429688 -58.015625 55.285156 -59.941406 48.511719 -59.941406 C 43.855469 -59.941406 39.769531 -58.90625 36.257812 -56.832031 C 32.746094 -54.757812 30.035156 -51.855469 28.128906 -48.132812 C 26.226562 -44.40625 25.273438 -40.046875 25.273438 -35.050781 L 19.429688 -38.226562 C 20.191406 -45.675781 22.140625 -52.027344 25.273438 -57.277344 C 28.40625 -62.523438 32.425781 -66.566406 37.335938 -69.402344 C 42.246094 -72.242188 47.75 -73.660156 53.847656 -73.660156 Z M 53.847656 -73.660156 "/></g></g><g style="fill:#0a2540;fill-opacity:1;"><g transform="translate(1115.10703, 234.374985)"><path style="stroke:none" d="M 48.003906 1.777344 C 39.625 1.777344 32.171875 0.191406 25.652344 -2.984375 C 19.132812 -6.160156 14.011719 -10.582031 10.285156 -16.253906 C 6.5625 -21.929688 4.699219 -28.53125 4.699219 -36.066406 C 4.699219 -43.519531 6.457031 -50.058594 9.96875 -55.6875 C 13.484375 -61.320312 18.351562 -65.722656 24.574219 -68.894531 C 30.796875 -72.070312 37.929688 -73.660156 45.972656 -73.660156 C 54.015625 -73.660156 60.980469 -71.859375 66.863281 -68.261719 C 72.75 -64.664062 77.300781 -59.605469 80.515625 -53.085938 C 83.734375 -46.566406 85.34375 -38.902344 85.34375 -30.097656 L 17.652344 -30.097656 L 17.652344 -42.671875 L 77.085938 -42.671875 L 68.832031 -37.972656 C 68.578125 -42.714844 67.457031 -46.777344 65.46875 -50.164062 C 63.476562 -53.550781 60.8125 -56.152344 57.464844 -57.972656 C 54.121094 -59.792969 50.164062 -60.703125 45.59375 -60.703125 C 40.765625 -60.703125 36.554688 -59.730469 32.957031 -57.785156 C 29.359375 -55.835938 26.542969 -53.105469 24.511719 -49.59375 C 22.480469 -46.078125 21.460938 -41.910156 21.460938 -37.082031 C 21.460938 -31.75 22.667969 -27.136719 25.082031 -23.242188 C 27.496094 -19.347656 30.925781 -16.363281 35.367188 -14.289062 C 39.8125 -12.214844 45.085938 -11.175781 51.179688 -11.175781 C 56.683594 -11.175781 62.3125 -12.042969 68.070312 -13.777344 C 73.828125 -15.515625 78.90625 -17.949219 83.308594 -21.082031 L 83.308594 -9.144531 C 78.90625 -5.757812 73.550781 -3.089844 67.246094 -1.144531 C 60.9375 0.804688 54.523438 1.777344 48.003906 1.777344 Z M 48.003906 1.777344 "/></g></g><g style="fill:#0a2540;fill-opacity:1;"><g transform="translate(1205.274291, 234.374985)"><path style="stroke:none" d="M 5.332031 -71.878906 L 21.84375 -71.878906 L 26.160156 -45.71875 L 26.160156 0 L 9.652344 0 L 9.652344 -48.894531 Z M 62.609375 -72.386719 L 62.609375 -57.910156 C 60.746094 -58.417969 58.714844 -58.800781 56.515625 -59.054688 C 54.3125 -59.308594 52.238281 -59.433594 50.289062 -59.433594 C 45.632812 -59.433594 41.484375 -58.417969 37.84375 -56.386719 C 34.203125 -54.355469 31.347656 -51.328125 29.273438 -47.304688 C 27.199219 -43.285156 26.160156 -38.351562 26.160156 -32.511719 L 22.351562 -37.210938 C 22.691406 -42.289062 23.558594 -47.050781 24.953125 -51.496094 C 26.351562 -55.941406 28.300781 -59.816406 30.796875 -63.117188 C 33.292969 -66.417969 36.363281 -69.003906 40.003906 -70.863281 C 43.644531 -72.726562 47.878906 -73.660156 52.703125 -73.660156 C 54.398438 -73.660156 56.132812 -73.550781 57.910156 -73.339844 C 59.6875 -73.128906 61.253906 -72.8125 62.609375 -72.386719 Z M 62.609375 -72.386719 "/></g></g><g style="fill:#0a2540;fill-opacity:1;"><g transform="translate(1265.851435, 234.374985)"><path style="stroke:none" d=""/></g></g><g style="fill:#0a2540;fill-opacity:1;"><g transform="translate(1299.505394, 234.374985)"><path style="stroke:none" d="M 86.738281 -54.609375 L 86.738281 -40.640625 L 20.191406 -40.640625 L 20.191406 -54.609375 Z M 31.242188 -47.625 L 24.511719 -5.078125 L 16.507812 -14.476562 L 90.421875 -14.476562 L 90.421875 0 L 7.367188 0 L 14.984375 -47.625 L 7.367188 -95.25 L 89.789062 -95.25 L 89.789062 -80.769531 L 16.507812 -80.769531 L 24.511719 -90.167969 Z M 31.242188 -47.625 "/></g></g><g style="fill:#0a2540;fill-opacity:1;"><g transform="translate(1395.1335, 234.374985)"><path style="stroke:none" d="M 76.070312 0 L 73.277344 -27.304688 L 76.960938 -35.8125 L 73.40625 -45.59375 L 78.738281 -97.789062 L 95.757812 -97.789062 L 89.277344 -36.957031 L 92.960938 0 Z M 80.898438 -35.941406 C 79.289062 -28.40625 76.621094 -21.800781 72.898438 -16.128906 C 69.171875 -10.457031 64.578125 -6.054688 59.117188 -2.921875 C 53.65625 0.210938 47.582031 1.777344 40.894531 1.777344 C 33.867188 1.777344 27.644531 0.191406 22.222656 -2.984375 C 16.804688 -6.160156 12.574219 -10.582031 9.523438 -16.253906 C 6.476562 -21.929688 4.953125 -28.488281 4.953125 -35.941406 C 4.953125 -43.476562 6.476562 -50.058594 9.523438 -55.6875 C 12.574219 -61.320312 16.804688 -65.722656 22.222656 -68.894531 C 27.644531 -72.070312 33.867188 -73.660156 40.894531 -73.660156 C 47.582031 -73.660156 53.65625 -72.09375 59.117188 -68.960938 C 64.578125 -65.828125 69.191406 -61.445312 72.960938 -55.816406 C 76.726562 -50.183594 79.375 -43.558594 80.898438 -35.941406 Z M 21.714844 -35.941406 C 21.714844 -31.113281 22.710938 -26.859375 24.699219 -23.175781 C 26.691406 -19.492188 29.421875 -16.617188 32.890625 -14.542969 C 36.363281 -12.46875 40.34375 -11.429688 44.832031 -11.429688 C 49.402344 -11.429688 53.636719 -12.46875 57.53125 -14.542969 C 61.425781 -16.617188 64.875 -19.492188 67.878906 -23.175781 C 70.886719 -26.859375 73.277344 -31.113281 75.054688 -35.941406 C 73.277344 -40.765625 70.886719 -45.019531 67.878906 -48.703125 C 64.875 -52.386719 61.425781 -55.265625 57.53125 -57.339844 C 53.636719 -59.414062 49.402344 -60.449219 44.832031 -60.449219 C 40.34375 -60.449219 36.363281 -59.414062 32.890625 -57.339844 C 29.421875 -55.265625 26.691406 -52.386719 24.699219 -48.703125 C 22.710938 -45.019531 21.714844 -40.765625 21.714844 -35.941406 Z M 21.714844 -35.941406 "/></g></g></g></svg>